<?xml version="1.0" encoding="UTF-8" standalone="no"?>
<!DOCTYPE svg PUBLIC "-//W3C//DTD SVG 1.1//EN"
 "http://www.w3.org/Graphics/SVG/1.1/DTD/svg11.dtd">
<!-- Generated by graphviz version 2.43.0 (0)
 -->
<!-- Title: G Pages: 1 -->
<svg width="811pt" height="446pt"
 viewBox="0.00 0.00 811.20 446.21" xmlns="http://www.w3.org/2000/svg" xmlns:xlink="http://www.w3.org/1999/xlink">
<g id="graph0" class="graph" transform="scale(1 1) rotate(0) translate(21.6 424.61)">
<title>G</title>
<polygon fill="#111111" stroke="transparent" points="-21.6,21.6 -21.6,-424.61 789.6,-424.61 789.6,21.6 -21.6,21.6"/>
<!-- app.js -->
<g id="node1" class="node">
<title>app.js</title>
<path fill="none" stroke="#c6c5fe" d="M46.33,-161.47C46.33,-161.47 7.67,-161.47 7.67,-161.47 3.83,-161.47 0,-157.64 0,-153.8 0,-153.8 0,-146.14 0,-146.14 0,-142.3 3.83,-138.47 7.67,-138.47 7.67,-138.47 46.33,-138.47 46.33,-138.47 50.17,-138.47 54,-142.3 54,-146.14 54,-146.14 54,-153.8 54,-153.8 54,-157.64 50.17,-161.47 46.33,-161.47"/>
<text text-anchor="middle" x="27" y="-146.27" font-family="Arial" font-size="14.00" fill="#c6c5fe">app.js</text>
</g>
<!-- gameManager.js -->
<g id="node2" class="node">
<title>gameManager.js</title>
<path fill="none" stroke="#c6c5fe" d="M200.33,-161.47C200.33,-161.47 97.67,-161.47 97.67,-161.47 93.83,-161.47 90,-157.64 90,-153.8 90,-153.8 90,-146.14 90,-146.14 90,-142.3 93.83,-138.47 97.67,-138.47 97.67,-138.47 200.33,-138.47 200.33,-138.47 204.17,-138.47 208,-142.3 208,-146.14 208,-146.14 208,-153.8 208,-153.8 208,-157.64 204.17,-161.47 200.33,-161.47"/>
<text text-anchor="middle" x="149" y="-146.27" font-family="Arial" font-size="14.00" fill="#c6c5fe">gameManager.js</text>
</g>
<!-- app.js&#45;&gt;gameManager.js -->
<g id="edge1" class="edge">
<title>app.js&#45;&gt;gameManager.js</title>
<path fill="none" stroke="#757575" d="M54.04,-149.97C61.83,-149.97 70.77,-149.97 79.96,-149.97"/>
<polygon fill="#757575" stroke="#757575" points="80,-153.47 90,-149.97 80,-146.47 80,-153.47"/>
</g>
<!-- canvas.js -->
<g id="node3" class="node">
<title>canvas.js</title>
<path fill="none" stroke="#cfffac" d="M748.83,-282.47C748.83,-282.47 691.17,-282.47 691.17,-282.47 687.33,-282.47 683.5,-278.64 683.5,-274.8 683.5,-274.8 683.5,-267.14 683.5,-267.14 683.5,-263.3 687.33,-259.47 691.17,-259.47 691.17,-259.47 748.83,-259.47 748.83,-259.47 752.67,-259.47 756.5,-263.3 756.5,-267.14 756.5,-267.14 756.5,-274.8 756.5,-274.8 756.5,-278.64 752.67,-282.47 748.83,-282.47"/>
<text text-anchor="middle" x="720" y="-267.27" font-family="Arial" font-size="14.00" fill="#cfffac">canvas.js</text>
</g>
<!-- gameManager.js&#45;&gt;canvas.js -->
<g id="edge8" class="edge">
<title>gameManager.js&#45;&gt;canvas.js</title>
<path fill="none" stroke="#757575" d="M162.21,-161.56C207.02,-203.18 368.38,-344.91 533,-389.97 577.15,-402.05 595.41,-411.14 636,-389.97 675.58,-369.32 700.14,-320.22 711.5,-291.97"/>
<polygon fill="#757575" stroke="#757575" points="714.79,-293.18 715.1,-282.59 708.25,-290.68 714.79,-293.18"/>
</g>
<!-- gameLoop.js -->
<g id="node7" class="node">
<title>gameLoop.js</title>
<path fill="none" stroke="#c6c5fe" d="M489.33,-262.47C489.33,-262.47 409.67,-262.47 409.67,-262.47 405.83,-262.47 402,-258.64 402,-254.8 402,-254.8 402,-247.14 402,-247.14 402,-243.3 405.83,-239.47 409.67,-239.47 409.67,-239.47 489.33,-239.47 489.33,-239.47 493.17,-239.47 497,-243.3 497,-247.14 497,-247.14 497,-254.8 497,-254.8 497,-258.64 493.17,-262.47 489.33,-262.47"/>
<text text-anchor="middle" x="449.5" y="-247.27" font-family="Arial" font-size="14.00" fill="#c6c5fe">gameLoop.js</text>
</g>
<!-- gameManager.js&#45;&gt;gameLoop.js -->
<g id="edge9" class="edge">
<title>gameManager.js&#45;&gt;gameLoop.js</title>
<path fill="none" stroke="#757575" d="M179.93,-161.5C198.34,-168.49 222.45,-177.48 244,-184.97 297.67,-203.61 359.85,-223.43 401.43,-236.43"/>
<polygon fill="#757575" stroke="#757575" points="400.43,-239.78 411.02,-239.42 402.51,-233.1 400.43,-239.78"/>
</g>
<!-- gameState.js -->
<g id="node8" class="node">
<title>gameState.js</title>
<path fill="none" stroke="#cfffac" d="M760.33,-141.47C760.33,-141.47 679.67,-141.47 679.67,-141.47 675.83,-141.47 672,-137.64 672,-133.8 672,-133.8 672,-126.14 672,-126.14 672,-122.3 675.83,-118.47 679.67,-118.47 679.67,-118.47 760.33,-118.47 760.33,-118.47 764.17,-118.47 768,-122.3 768,-126.14 768,-126.14 768,-133.8 768,-133.8 768,-137.64 764.17,-141.47 760.33,-141.47"/>
<text text-anchor="middle" x="720" y="-126.27" font-family="Arial" font-size="14.00" fill="#cfffac">gameState.js</text>
</g>
<!-- gameManager.js&#45;&gt;gameState.js -->
<g id="edge10" class="edge">
<title>gameManager.js&#45;&gt;gameState.js</title>
<path fill="none" stroke="#757575" d="M171.72,-138.36C190.34,-128.99 218.17,-116.35 244,-109.97 413.23,-68.16 464.79,-64.18 636,-96.97 653.62,-100.34 672.26,-107.4 687.4,-114.13"/>
<polygon fill="#757575" stroke="#757575" points="686.25,-117.46 696.8,-118.46 689.18,-111.1 686.25,-117.46"/>
</g>
<!-- keyboard.js -->
<g id="node10" class="node">
<title>keyboard.js</title>
<path fill="none" stroke="#c6c5fe" d="M340.33,-23.47C340.33,-23.47 269.67,-23.47 269.67,-23.47 265.83,-23.47 262,-19.64 262,-15.8 262,-15.8 262,-8.14 262,-8.14 262,-4.3 265.83,-0.47 269.67,-0.47 269.67,-0.47 340.33,-0.47 340.33,-0.47 344.17,-0.47 348,-4.3 348,-8.14 348,-8.14 348,-15.8 348,-15.8 348,-19.64 344.17,-23.47 340.33,-23.47"/>
<text text-anchor="middle" x="305" y="-8.27" font-family="Arial" font-size="14.00" fill="#c6c5fe">keyboard.js</text>
</g>
<!-- gameManager.js&#45;&gt;keyboard.js -->
<g id="edge11" class="edge">
<title>gameManager.js&#45;&gt;keyboard.js</title>
<path fill="none" stroke="#757575" d="M157.14,-138.28C171.24,-116.04 204.72,-67.26 244,-37.97 249.08,-34.18 254.79,-30.81 260.62,-27.86"/>
<polygon fill="#757575" stroke="#757575" points="262.24,-30.96 269.81,-23.55 259.27,-24.63 262.24,-30.96"/>
</g>
<!-- player.js -->
<g id="node11" class="node">
<title>player.js</title>
<path fill="none" stroke="#c6c5fe" d="M609.83,-182.47C609.83,-182.47 559.17,-182.47 559.17,-182.47 555.33,-182.47 551.5,-178.64 551.5,-174.8 551.5,-174.8 551.5,-167.14 551.5,-167.14 551.5,-163.3 555.33,-159.47 559.17,-159.47 559.17,-159.47 609.83,-159.47 609.83,-159.47 613.67,-159.47 617.5,-163.3 617.5,-167.14 617.5,-167.14 617.5,-174.8 617.5,-174.8 617.5,-178.64 613.67,-182.47 609.83,-182.47"/>
<text text-anchor="middle" x="584.5" y="-167.27" font-family="Arial" font-size="14.00" fill="#c6c5fe">player.js</text>
</g>
<!-- gameManager.js&#45;&gt;player.js -->
<g id="edge12" class="edge">
<title>gameManager.js&#45;&gt;player.js</title>
<path fill="none" stroke="#757575" d="M208.01,-152.78C296.37,-157.06 462.64,-165.11 540.82,-168.9"/>
<polygon fill="#757575" stroke="#757575" points="541.09,-172.42 551.25,-169.41 541.43,-165.43 541.09,-172.42"/>
</g>
<!-- spawnEnemies.js -->
<g id="node12" class="node">
<title>spawnEnemies.js</title>
<path fill="none" stroke="#c6c5fe" d="M358.33,-141.47C358.33,-141.47 251.67,-141.47 251.67,-141.47 247.83,-141.47 244,-137.64 244,-133.8 244,-133.8 244,-126.14 244,-126.14 244,-122.3 247.83,-118.47 251.67,-118.47 251.67,-118.47 358.33,-118.47 358.33,-118.47 362.17,-118.47 366,-122.3 366,-126.14 366,-126.14 366,-133.8 366,-133.8 366,-137.64 362.17,-141.47 358.33,-141.47"/>
<text text-anchor="middle" x="305" y="-126.27" font-family="Arial" font-size="14.00" fill="#c6c5fe">spawnEnemies.js</text>
</g>
<!-- gameManager.js&#45;&gt;spawnEnemies.js -->
<g id="edge13" class="edge">
<title>gameManager.js&#45;&gt;spawnEnemies.js</title>
<path fill="none" stroke="#757575" d="M208.22,-142.41C216.61,-141.32 225.31,-140.19 233.9,-139.07"/>
<polygon fill="#757575" stroke="#757575" points="234.44,-142.53 243.9,-137.77 233.54,-135.59 234.44,-142.53"/>
</g>
<!-- collisions.js -->
<g id="node4" class="node">
<title>collisions.js</title>
<path fill="none" stroke="#cfffac" d="M619.33,-380.47C619.33,-380.47 549.67,-380.47 549.67,-380.47 545.83,-380.47 542,-376.64 542,-372.8 542,-372.8 542,-365.14 542,-365.14 542,-361.3 545.83,-357.47 549.67,-357.47 549.67,-357.47 619.33,-357.47 619.33,-357.47 623.17,-357.47 627,-361.3 627,-365.14 627,-365.14 627,-372.8 627,-372.8 627,-376.64 623.17,-380.47 619.33,-380.47"/>
<text text-anchor="middle" x="584.5" y="-365.27" font-family="Arial" font-size="14.00" fill="#cfffac">collisions.js</text>
</g>
<!-- enemy.js -->
<g id="node5" class="node">
<title>enemy.js</title>
<path fill="none" stroke="#c6c5fe" d="M477.33,-141.47C477.33,-141.47 421.67,-141.47 421.67,-141.47 417.83,-141.47 414,-137.64 414,-133.8 414,-133.8 414,-126.14 414,-126.14 414,-122.3 417.83,-118.47 421.67,-118.47 421.67,-118.47 477.33,-118.47 477.33,-118.47 481.17,-118.47 485,-122.3 485,-126.14 485,-126.14 485,-133.8 485,-133.8 485,-137.64 481.17,-141.47 477.33,-141.47"/>
<text text-anchor="middle" x="449.5" y="-126.27" font-family="Arial" font-size="14.00" fill="#c6c5fe">enemy.js</text>
</g>
<!-- enemy.js&#45;&gt;canvas.js -->
<g id="edge2" class="edge">
<title>enemy.js&#45;&gt;canvas.js</title>
<path fill="none" stroke="#757575" d="M455.4,-141.51C468.9,-172.68 507.3,-257.18 533,-271.97 575.74,-296.57 633.67,-291.46 673.47,-283.34"/>
<polygon fill="#757575" stroke="#757575" points="674.4,-286.72 683.42,-281.17 672.91,-279.88 674.4,-286.72"/>
</g>
<!-- weapon/rifle.js -->
<g id="node6" class="node">
<title>weapon/rifle.js</title>
<path fill="none" stroke="#c6c5fe" d="M628.33,-141.47C628.33,-141.47 540.67,-141.47 540.67,-141.47 536.83,-141.47 533,-137.64 533,-133.8 533,-133.8 533,-126.14 533,-126.14 533,-122.3 536.83,-118.47 540.67,-118.47 540.67,-118.47 628.33,-118.47 628.33,-118.47 632.17,-118.47 636,-122.3 636,-126.14 636,-126.14 636,-133.8 636,-133.8 636,-137.64 632.17,-141.47 628.33,-141.47"/>
<text text-anchor="middle" x="584.5" y="-126.27" font-family="Arial" font-size="14.00" fill="#c6c5fe">weapon/rifle.js</text>
</g>
<!-- enemy.js&#45;&gt;weapon/rifle.js -->
<g id="edge3" class="edge">
<title>enemy.js&#45;&gt;weapon/rifle.js</title>
<path fill="none" stroke="#757575" d="M485.1,-129.97C496.58,-129.97 509.72,-129.97 522.58,-129.97"/>
<polygon fill="#757575" stroke="#757575" points="522.79,-133.47 532.79,-129.97 522.79,-126.47 522.79,-133.47"/>
</g>
<!-- weapon/rifle.js&#45;&gt;canvas.js -->
<g id="edge21" class="edge">
<title>weapon/rifle.js&#45;&gt;canvas.js</title>
<path fill="none" stroke="#757575" d="M620.66,-141.49C626.1,-144.13 631.42,-147.27 636,-150.97 670.24,-178.65 696.24,-224.05 709.41,-250.36"/>
<polygon fill="#757575" stroke="#757575" points="706.3,-251.96 713.82,-259.43 712.6,-248.9 706.3,-251.96"/>
</g>
<!-- weapon/rifle.js&#45;&gt;gameState.js -->
<g id="edge22" class="edge">
<title>weapon/rifle.js&#45;&gt;gameState.js</title>
<path fill="none" stroke="#757575" d="M636.35,-129.97C644.63,-129.97 653.25,-129.97 661.67,-129.97"/>
<polygon fill="#757575" stroke="#757575" points="661.8,-133.47 671.8,-129.97 661.8,-126.47 661.8,-133.47"/>
</g>
<!-- gameLoop.js&#45;&gt;canvas.js -->
<g id="edge4" class="edge">
<title>gameLoop.js&#45;&gt;canvas.js</title>
<path fill="none" stroke="#757575" d="M463,-262.58C478.2,-275.82 505.28,-296.7 533,-304.97 576.87,-318.05 591.08,-313.81 636,-304.97 653.92,-301.44 672.85,-294.01 688.09,-286.99"/>
<polygon fill="#757575" stroke="#757575" points="690.02,-289.95 697.53,-282.48 687,-283.63 690.02,-289.95"/>
</g>
<!-- gameLoop.js&#45;&gt;collisions.js -->
<g id="edge5" class="edge">
<title>gameLoop.js&#45;&gt;collisions.js</title>
<path fill="none" stroke="#757575" d="M458.77,-262.67C472.49,-281.47 501.59,-318.71 533,-342.97 537.49,-346.43 542.51,-349.65 547.59,-352.57"/>
<polygon fill="#757575" stroke="#757575" points="546.25,-355.82 556.72,-357.46 549.56,-349.65 546.25,-355.82"/>
</g>
<!-- gameLoop.js&#45;&gt;gameState.js -->
<g id="edge6" class="edge">
<title>gameLoop.js&#45;&gt;gameState.js</title>
<path fill="none" stroke="#757575" d="M492.24,-239.45C538.75,-226.3 610.75,-204.94 636,-191.97 659.16,-180.07 682.67,-161.8 698.72,-148.17"/>
<polygon fill="#757575" stroke="#757575" points="701.13,-150.72 706.4,-141.53 696.55,-145.42 701.13,-150.72"/>
</g>
<!-- playerStats.js -->
<g id="node9" class="node">
<title>playerStats.js</title>
<path fill="none" stroke="#c6c5fe" d="M625.83,-262.47C625.83,-262.47 543.17,-262.47 543.17,-262.47 539.33,-262.47 535.5,-258.64 535.5,-254.8 535.5,-254.8 535.5,-247.14 535.5,-247.14 535.5,-243.3 539.33,-239.47 543.17,-239.47 543.17,-239.47 625.83,-239.47 625.83,-239.47 629.67,-239.47 633.5,-243.3 633.5,-247.14 633.5,-247.14 633.5,-254.8 633.5,-254.8 633.5,-258.64 629.67,-262.47 625.83,-262.47"/>
<text text-anchor="middle" x="584.5" y="-247.27" font-family="Arial" font-size="14.00" fill="#c6c5fe">playerStats.js</text>
</g>
<!-- gameLoop.js&#45;&gt;playerStats.js -->
<g id="edge7" class="edge">
<title>gameLoop.js&#45;&gt;playerStats.js</title>
<path fill="none" stroke="#757575" d="M497.02,-250.97C506.15,-250.97 515.83,-250.97 525.29,-250.97"/>
<polygon fill="#757575" stroke="#757575" points="525.43,-254.47 535.43,-250.97 525.43,-247.47 525.43,-254.47"/>
</g>
<!-- playerStats.js&#45;&gt;canvas.js -->
<g id="edge17" class="edge">
<title>playerStats.js&#45;&gt;canvas.js</title>
<path fill="none" stroke="#757575" d="M633.7,-258.19C646.66,-260.13 660.64,-262.23 673.46,-264.15"/>
<polygon fill="#757575" stroke="#757575" points="673.04,-267.62 683.44,-265.64 674.07,-260.7 673.04,-267.62"/>
</g>
<!-- playerStats.js&#45;&gt;gameState.js -->
<g id="edge18" class="edge">
<title>playerStats.js&#45;&gt;gameState.js</title>
<path fill="none" stroke="#757575" d="M612.59,-239.38C620.51,-235.38 628.93,-230.5 636,-224.97 663.94,-203.1 689.76,-170.86 704.95,-150.13"/>
<polygon fill="#757575" stroke="#757575" points="707.98,-151.92 710.97,-141.76 702.29,-147.84 707.98,-151.92"/>
</g>
<!-- keyboard.js&#45;&gt;gameState.js -->
<g id="edge14" class="edge">
<title>keyboard.js&#45;&gt;gameState.js</title>
<path fill="none" stroke="#757575" d="M348.18,-5.77C413.56,1.82 541.66,8.5 636,-37.97 668.08,-53.77 693.5,-87.85 707.38,-109.8"/>
<polygon fill="#757575" stroke="#757575" points="704.41,-111.66 712.61,-118.38 710.39,-108.02 704.41,-111.66"/>
</g>
<!-- player.js&#45;&gt;canvas.js -->
<g id="edge15" class="edge">
<title>player.js&#45;&gt;canvas.js</title>
<path fill="none" stroke="#757575" d="M601.08,-182.64C624.29,-200.02 668.13,-232.87 695.33,-253.24"/>
<polygon fill="#757575" stroke="#757575" points="693.42,-256.18 703.52,-259.38 697.62,-250.58 693.42,-256.18"/>
</g>
<!-- player.js&#45;&gt;gameState.js -->
<g id="edge16" class="edge">
<title>player.js&#45;&gt;gameState.js</title>
<path fill="none" stroke="#757575" d="M617.82,-161.04C633.96,-156.08 653.81,-149.99 671.64,-144.51"/>
<polygon fill="#757575" stroke="#757575" points="672.77,-147.83 681.3,-141.55 670.71,-141.14 672.77,-147.83"/>
</g>
<!-- spawnEnemies.js&#45;&gt;enemy.js -->
<g id="edge19" class="edge">
<title>spawnEnemies.js&#45;&gt;enemy.js</title>
<path fill="none" stroke="#757575" d="M366.02,-129.97C378.61,-129.97 391.68,-129.97 403.6,-129.97"/>
<polygon fill="#757575" stroke="#757575" points="403.74,-133.47 413.74,-129.97 403.74,-126.47 403.74,-133.47"/>
</g>
<!-- spawnEnemies.js&#45;&gt;gameState.js -->
<g id="edge20" class="edge">
<title>spawnEnemies.js&#45;&gt;gameState.js</title>
<path fill="none" stroke="#757575" d="M352.09,-118.37C367.81,-114.94 385.57,-111.66 402,-109.97 505.45,-99.31 532.73,-97.7 636,-109.97 646.93,-111.27 658.5,-113.5 669.43,-116"/>
<polygon fill="#757575" stroke="#757575" points="668.7,-119.43 679.24,-118.37 670.34,-112.62 668.7,-119.43"/>
</g>
</g>
</svg>
