<?xml version="1.0" encoding="UTF-8" standalone="no"?>
<!DOCTYPE svg PUBLIC "-//W3C//DTD SVG 1.1//EN"
 "http://www.w3.org/Graphics/SVG/1.1/DTD/svg11.dtd">
<!-- Generated by graphviz version 2.43.0 (0)
 -->
<!-- Title: G Pages: 1 -->
<svg width="1119pt" height="669pt"
 viewBox="0.00 0.00 1119.20 669.34" xmlns="http://www.w3.org/2000/svg" xmlns:xlink="http://www.w3.org/1999/xlink">
<g id="graph0" class="graph" transform="scale(1 1) rotate(0) translate(21.6 647.74)">
<title>G</title>
<polygon fill="#111111" stroke="transparent" points="-21.6,21.6 -21.6,-647.74 1097.6,-647.74 1097.6,21.6 -21.6,21.6"/>
<!-- app.js -->
<g id="node1" class="node">
<title>app.js</title>
<path fill="none" stroke="#c6c5fe" d="M46.33,-473.93C46.33,-473.93 7.67,-473.93 7.67,-473.93 3.83,-473.93 0,-470.1 0,-466.27 0,-466.27 0,-458.6 0,-458.6 0,-454.77 3.83,-450.93 7.67,-450.93 7.67,-450.93 46.33,-450.93 46.33,-450.93 50.17,-450.93 54,-454.77 54,-458.6 54,-458.6 54,-466.27 54,-466.27 54,-470.1 50.17,-473.93 46.33,-473.93"/>
<text text-anchor="middle" x="27" y="-458.73" font-family="Arial" font-size="14.00" fill="#c6c5fe">app.js</text>
</g>
<!-- gameManager.js -->
<g id="node2" class="node">
<title>gameManager.js</title>
<path fill="none" stroke="#c6c5fe" d="M200.33,-473.93C200.33,-473.93 97.67,-473.93 97.67,-473.93 93.83,-473.93 90,-470.1 90,-466.27 90,-466.27 90,-458.6 90,-458.6 90,-454.77 93.83,-450.93 97.67,-450.93 97.67,-450.93 200.33,-450.93 200.33,-450.93 204.17,-450.93 208,-454.77 208,-458.6 208,-458.6 208,-466.27 208,-466.27 208,-470.1 204.17,-473.93 200.33,-473.93"/>
<text text-anchor="middle" x="149" y="-458.73" font-family="Arial" font-size="14.00" fill="#c6c5fe">gameManager.js</text>
</g>
<!-- app.js&#45;&gt;gameManager.js -->
<g id="edge1" class="edge">
<title>app.js&#45;&gt;gameManager.js</title>
<path fill="none" stroke="#757575" d="M54.04,-462.43C61.83,-462.43 70.77,-462.43 79.96,-462.43"/>
<polygon fill="#757575" stroke="#757575" points="80,-465.93 90,-462.43 80,-458.93 80,-465.93"/>
</g>
<!-- canvas.js -->
<g id="node3" class="node">
<title>canvas.js</title>
<path fill="none" stroke="#cfffac" d="M1056.83,-187.93C1056.83,-187.93 999.17,-187.93 999.17,-187.93 995.33,-187.93 991.5,-184.1 991.5,-180.27 991.5,-180.27 991.5,-172.6 991.5,-172.6 991.5,-168.77 995.33,-164.93 999.17,-164.93 999.17,-164.93 1056.83,-164.93 1056.83,-164.93 1060.67,-164.93 1064.5,-168.77 1064.5,-172.6 1064.5,-172.6 1064.5,-180.27 1064.5,-180.27 1064.5,-184.1 1060.67,-187.93 1056.83,-187.93"/>
<text text-anchor="middle" x="1028" y="-172.73" font-family="Arial" font-size="14.00" fill="#cfffac">canvas.js</text>
</g>
<!-- gameManager.js&#45;&gt;canvas.js -->
<g id="edge15" class="edge">
<title>gameManager.js&#45;&gt;canvas.js</title>
<path fill="none" stroke="#757575" d="M153.75,-450.67C171.3,-397.77 250.93,-181.02 402,-98.43 613.65,17.27 727.14,35.19 944,-70.43 980.17,-88.05 1005.23,-129.91 1017.76,-155.44"/>
<polygon fill="#757575" stroke="#757575" points="1014.67,-157.08 1022.09,-164.65 1021,-154.11 1014.67,-157.08"/>
</g>
<!-- gameState.js -->
<g id="node6" class="node">
<title>gameState.js</title>
<path fill="none" stroke="#cfffac" d="M1068.33,-405.93C1068.33,-405.93 987.67,-405.93 987.67,-405.93 983.83,-405.93 980,-402.1 980,-398.27 980,-398.27 980,-390.6 980,-390.6 980,-386.77 983.83,-382.93 987.67,-382.93 987.67,-382.93 1068.33,-382.93 1068.33,-382.93 1072.17,-382.93 1076,-386.77 1076,-390.6 1076,-390.6 1076,-398.27 1076,-398.27 1076,-402.1 1072.17,-405.93 1068.33,-405.93"/>
<text text-anchor="middle" x="1028" y="-390.73" font-family="Arial" font-size="14.00" fill="#cfffac">gameState.js</text>
</g>
<!-- gameManager.js&#45;&gt;gameState.js -->
<g id="edge17" class="edge">
<title>gameManager.js&#45;&gt;gameState.js</title>
<path fill="none" stroke="#757575" d="M156.48,-474.26C169.67,-497.12 201.99,-547.24 244,-571.43 325.32,-618.26 357.66,-610.43 451.5,-610.43 451.5,-610.43 451.5,-610.43 626,-610.43 768.05,-610.43 828.69,-661.39 944,-578.43 998.49,-539.23 1017.9,-455.69 1024.23,-416.1"/>
<polygon fill="#757575" stroke="#757575" points="1027.73,-416.36 1025.71,-405.96 1020.8,-415.35 1027.73,-416.36"/>
</g>
<!-- gameLoop.js -->
<g id="node11" class="node">
<title>gameLoop.js</title>
<path fill="none" stroke="#c6c5fe" d="M664.83,-445.93C664.83,-445.93 585.17,-445.93 585.17,-445.93 581.33,-445.93 577.5,-442.1 577.5,-438.27 577.5,-438.27 577.5,-430.6 577.5,-430.6 577.5,-426.77 581.33,-422.93 585.17,-422.93 585.17,-422.93 664.83,-422.93 664.83,-422.93 668.67,-422.93 672.5,-426.77 672.5,-430.6 672.5,-430.6 672.5,-438.27 672.5,-438.27 672.5,-442.1 668.67,-445.93 664.83,-445.93"/>
<text text-anchor="middle" x="625" y="-430.73" font-family="Arial" font-size="14.00" fill="#c6c5fe">gameLoop.js</text>
</g>
<!-- gameManager.js&#45;&gt;gameLoop.js -->
<g id="edge16" class="edge">
<title>gameManager.js&#45;&gt;gameLoop.js</title>
<path fill="none" stroke="#757575" d="M208.12,-459C299.77,-453.59 476.72,-443.13 567.41,-437.78"/>
<polygon fill="#757575" stroke="#757575" points="567.72,-441.27 577.5,-437.18 567.31,-434.28 567.72,-441.27"/>
</g>
<!-- keyboard.js -->
<g id="node14" class="node">
<title>keyboard.js</title>
<path fill="none" stroke="#c6c5fe" d="M487.83,-581.93C487.83,-581.93 417.17,-581.93 417.17,-581.93 413.33,-581.93 409.5,-578.1 409.5,-574.27 409.5,-574.27 409.5,-566.6 409.5,-566.6 409.5,-562.77 413.33,-558.93 417.17,-558.93 417.17,-558.93 487.83,-558.93 487.83,-558.93 491.67,-558.93 495.5,-562.77 495.5,-566.6 495.5,-566.6 495.5,-574.27 495.5,-574.27 495.5,-578.1 491.67,-581.93 487.83,-581.93"/>
<text text-anchor="middle" x="452.5" y="-566.73" font-family="Arial" font-size="14.00" fill="#c6c5fe">keyboard.js</text>
</g>
<!-- gameManager.js&#45;&gt;keyboard.js -->
<g id="edge18" class="edge">
<title>gameManager.js&#45;&gt;keyboard.js</title>
<path fill="none" stroke="#757575" d="M159.24,-474.08C174.63,-492.53 207.43,-528.06 244,-544.43 293.54,-566.62 355.99,-571.76 399.38,-572.2"/>
<polygon fill="#757575" stroke="#757575" points="399.42,-575.7 409.43,-572.22 399.43,-568.7 399.42,-575.7"/>
</g>
<!-- player.js -->
<g id="node15" class="node">
<title>player.js</title>
<path fill="none" stroke="#c6c5fe" d="M870.83,-269.93C870.83,-269.93 820.17,-269.93 820.17,-269.93 816.33,-269.93 812.5,-266.1 812.5,-262.27 812.5,-262.27 812.5,-254.6 812.5,-254.6 812.5,-250.77 816.33,-246.93 820.17,-246.93 820.17,-246.93 870.83,-246.93 870.83,-246.93 874.67,-246.93 878.5,-250.77 878.5,-254.6 878.5,-254.6 878.5,-262.27 878.5,-262.27 878.5,-266.1 874.67,-269.93 870.83,-269.93"/>
<text text-anchor="middle" x="845.5" y="-254.73" font-family="Arial" font-size="14.00" fill="#c6c5fe">player.js</text>
</g>
<!-- gameManager.js&#45;&gt;player.js -->
<g id="edge19" class="edge">
<title>gameManager.js&#45;&gt;player.js</title>
<path fill="none" stroke="#757575" d="M181.27,-450.84C269.2,-418.62 526.6,-326.94 747,-274.43 764.83,-270.19 784.75,-266.7 801.92,-264.08"/>
<polygon fill="#757575" stroke="#757575" points="802.83,-267.48 812.21,-262.55 801.81,-260.55 802.83,-267.48"/>
</g>
<!-- spawnEnemies.js -->
<g id="node16" class="node">
<title>spawnEnemies.js</title>
<path fill="none" stroke="#c6c5fe" d="M358.33,-297.93C358.33,-297.93 251.67,-297.93 251.67,-297.93 247.83,-297.93 244,-294.1 244,-290.27 244,-290.27 244,-282.6 244,-282.6 244,-278.77 247.83,-274.93 251.67,-274.93 251.67,-274.93 358.33,-274.93 358.33,-274.93 362.17,-274.93 366,-278.77 366,-282.6 366,-282.6 366,-290.27 366,-290.27 366,-294.1 362.17,-297.93 358.33,-297.93"/>
<text text-anchor="middle" x="305" y="-282.73" font-family="Arial" font-size="14.00" fill="#c6c5fe">spawnEnemies.js</text>
</g>
<!-- gameManager.js&#45;&gt;spawnEnemies.js -->
<g id="edge20" class="edge">
<title>gameManager.js&#45;&gt;spawnEnemies.js</title>
<path fill="none" stroke="#757575" d="M154.5,-450.63C165.61,-422.9 196.92,-352.9 244,-312.43 248.41,-308.64 253.46,-305.33 258.72,-302.45"/>
<polygon fill="#757575" stroke="#757575" points="260.27,-305.58 267.68,-298.01 257.17,-299.31 260.27,-305.58"/>
</g>
<!-- collisions.js -->
<g id="node4" class="node">
<title>collisions.js</title>
<path fill="none" stroke="#cfffac" d="M880.33,-505.93C880.33,-505.93 810.67,-505.93 810.67,-505.93 806.83,-505.93 803,-502.1 803,-498.27 803,-498.27 803,-490.6 803,-490.6 803,-486.77 806.83,-482.93 810.67,-482.93 810.67,-482.93 880.33,-482.93 880.33,-482.93 884.17,-482.93 888,-486.77 888,-490.6 888,-490.6 888,-498.27 888,-498.27 888,-502.1 884.17,-505.93 880.33,-505.93"/>
<text text-anchor="middle" x="845.5" y="-490.73" font-family="Arial" font-size="14.00" fill="#cfffac">collisions.js</text>
</g>
<!-- enemy/enemy.js -->
<g id="node5" class="node">
<title>enemy/enemy.js</title>
<path fill="none" stroke="#c6c5fe" d="M675.33,-228.93C675.33,-228.93 574.67,-228.93 574.67,-228.93 570.83,-228.93 567,-225.1 567,-221.27 567,-221.27 567,-213.6 567,-213.6 567,-209.77 570.83,-205.93 574.67,-205.93 574.67,-205.93 675.33,-205.93 675.33,-205.93 679.17,-205.93 683,-209.77 683,-213.6 683,-213.6 683,-221.27 683,-221.27 683,-225.1 679.17,-228.93 675.33,-228.93"/>
<text text-anchor="middle" x="625" y="-213.73" font-family="Arial" font-size="14.00" fill="#c6c5fe">enemy/enemy.js</text>
</g>
<!-- enemy/enemy.js&#45;&gt;canvas.js -->
<g id="edge2" class="edge">
<title>enemy/enemy.js&#45;&gt;canvas.js</title>
<path fill="none" stroke="#757575" d="M642.23,-205.91C664.57,-190.83 706.62,-165.18 747,-155.43 832.11,-134.9 857.12,-144.61 944,-155.43 956.33,-156.97 969.46,-159.74 981.55,-162.78"/>
<polygon fill="#757575" stroke="#757575" points="980.86,-166.22 991.42,-165.37 982.63,-159.45 980.86,-166.22"/>
</g>
<!-- enemy/enemy.js&#45;&gt;gameState.js -->
<g id="edge3" class="edge">
<title>enemy/enemy.js&#45;&gt;gameState.js</title>
<path fill="none" stroke="#757575" d="M632.71,-229.09C648.67,-255.65 691.76,-320.67 747,-350.43 784.52,-370.65 899.47,-383.66 969.88,-389.95"/>
<polygon fill="#757575" stroke="#757575" points="969.67,-393.44 979.94,-390.83 970.28,-386.47 969.67,-393.44"/>
</g>
<!-- image.js -->
<g id="node7" class="node">
<title>image.js</title>
<path fill="none" stroke="#cfffac" d="M1054.33,-33.93C1054.33,-33.93 1001.67,-33.93 1001.67,-33.93 997.83,-33.93 994,-30.1 994,-26.27 994,-26.27 994,-18.6 994,-18.6 994,-14.77 997.83,-10.93 1001.67,-10.93 1001.67,-10.93 1054.33,-10.93 1054.33,-10.93 1058.17,-10.93 1062,-14.77 1062,-18.6 1062,-18.6 1062,-26.27 1062,-26.27 1062,-30.1 1058.17,-33.93 1054.33,-33.93"/>
<text text-anchor="middle" x="1028" y="-18.73" font-family="Arial" font-size="14.00" fill="#cfffac">image.js</text>
</g>
<!-- enemy/enemy.js&#45;&gt;image.js -->
<g id="edge4" class="edge">
<title>enemy/enemy.js&#45;&gt;image.js</title>
<path fill="none" stroke="#757575" d="M640.86,-205.87C662.92,-189.18 706.14,-158.26 747,-139.43 830.01,-101.18 861.72,-120.23 944,-80.43 966.3,-69.65 989.2,-53.17 1005.28,-40.52"/>
<polygon fill="#757575" stroke="#757575" points="1007.85,-42.94 1013.46,-33.96 1003.47,-37.48 1007.85,-42.94"/>
</g>
<!-- weapon/rifle.js -->
<g id="node8" class="node">
<title>weapon/rifle.js</title>
<path fill="none" stroke="#c6c5fe" d="M889.33,-228.93C889.33,-228.93 801.67,-228.93 801.67,-228.93 797.83,-228.93 794,-225.1 794,-221.27 794,-221.27 794,-213.6 794,-213.6 794,-209.77 797.83,-205.93 801.67,-205.93 801.67,-205.93 889.33,-205.93 889.33,-205.93 893.17,-205.93 897,-209.77 897,-213.6 897,-213.6 897,-221.27 897,-221.27 897,-225.1 893.17,-228.93 889.33,-228.93"/>
<text text-anchor="middle" x="845.5" y="-213.73" font-family="Arial" font-size="14.00" fill="#c6c5fe">weapon/rifle.js</text>
</g>
<!-- enemy/enemy.js&#45;&gt;weapon/rifle.js -->
<g id="edge5" class="edge">
<title>enemy/enemy.js&#45;&gt;weapon/rifle.js</title>
<path fill="none" stroke="#757575" d="M683.12,-217.43C713.91,-217.43 751.91,-217.43 783.3,-217.43"/>
<polygon fill="#757575" stroke="#757575" points="783.67,-220.93 793.67,-217.43 783.67,-213.93 783.67,-220.93"/>
</g>
<!-- weapon/rifle.js&#45;&gt;canvas.js -->
<g id="edge29" class="edge">
<title>weapon/rifle.js&#45;&gt;canvas.js</title>
<path fill="none" stroke="#757575" d="M897.16,-206.77C912.25,-203.53 928.81,-199.9 944,-196.43 956.08,-193.68 969.12,-190.59 981.21,-187.68"/>
<polygon fill="#757575" stroke="#757575" points="982.2,-191.04 991.09,-185.29 980.55,-184.24 982.2,-191.04"/>
</g>
<!-- weapon/rifle.js&#45;&gt;gameState.js -->
<g id="edge30" class="edge">
<title>weapon/rifle.js&#45;&gt;gameState.js</title>
<path fill="none" stroke="#757575" d="M897.09,-219.36C913.34,-222.07 930.59,-227.38 944,-237.43 989.63,-271.65 1012.65,-338.39 1021.92,-372.79"/>
<polygon fill="#757575" stroke="#757575" points="1018.59,-373.91 1024.45,-382.74 1025.37,-372.18 1018.59,-373.91"/>
</g>
<!-- enemy/tank.js -->
<g id="node9" class="node">
<title>enemy/tank.js</title>
<path fill="none" stroke="#c6c5fe" d="M495.33,-130.93C495.33,-130.93 409.67,-130.93 409.67,-130.93 405.83,-130.93 402,-127.1 402,-123.27 402,-123.27 402,-115.6 402,-115.6 402,-111.77 405.83,-107.93 409.67,-107.93 409.67,-107.93 495.33,-107.93 495.33,-107.93 499.17,-107.93 503,-111.77 503,-115.6 503,-115.6 503,-123.27 503,-123.27 503,-127.1 499.17,-130.93 495.33,-130.93"/>
<text text-anchor="middle" x="452.5" y="-115.73" font-family="Arial" font-size="14.00" fill="#c6c5fe">enemy/tank.js</text>
</g>
<!-- enemy/tank.js&#45;&gt;canvas.js -->
<g id="edge6" class="edge">
<title>enemy/tank.js&#45;&gt;canvas.js</title>
<path fill="none" stroke="#757575" d="M491.87,-107.92C506.48,-104.09 523.37,-100.33 539,-98.43 717.82,-76.8 775.22,-50.53 944,-113.43 969.26,-122.85 993.24,-142.65 1008.87,-157.56"/>
<polygon fill="#757575" stroke="#757575" points="1006.66,-160.3 1016.24,-164.83 1011.57,-155.31 1006.66,-160.3"/>
</g>
<!-- enemy/tank.js&#45;&gt;enemy/enemy.js -->
<g id="edge7" class="edge">
<title>enemy/tank.js&#45;&gt;enemy/enemy.js</title>
<path fill="none" stroke="#757575" d="M473.73,-131.06C503.85,-148.37 560.64,-181.02 595.12,-200.84"/>
<polygon fill="#757575" stroke="#757575" points="593.38,-203.87 603.8,-205.82 596.87,-197.81 593.38,-203.87"/>
</g>
<!-- enemy/tank.js&#45;&gt;image.js -->
<g id="edge8" class="edge">
<title>enemy/tank.js&#45;&gt;image.js</title>
<path fill="none" stroke="#757575" d="M470.36,-107.86C487.05,-96.98 513.68,-81.11 539,-72.43 696.17,-18.6 897.16,-17.78 983.94,-20.44"/>
<polygon fill="#757575" stroke="#757575" points="983.83,-23.93 993.94,-20.77 984.07,-16.94 983.83,-23.93"/>
</g>
<!-- weapon/tank/tankTurret.js -->
<g id="node10" class="node">
<title>weapon/tank/tankTurret.js</title>
<path fill="none" stroke="#c6c5fe" d="M703.33,-130.93C703.33,-130.93 546.67,-130.93 546.67,-130.93 542.83,-130.93 539,-127.1 539,-123.27 539,-123.27 539,-115.6 539,-115.6 539,-111.77 542.83,-107.93 546.67,-107.93 546.67,-107.93 703.33,-107.93 703.33,-107.93 707.17,-107.93 711,-111.77 711,-115.6 711,-115.6 711,-123.27 711,-123.27 711,-127.1 707.17,-130.93 703.33,-130.93"/>
<text text-anchor="middle" x="625" y="-115.73" font-family="Arial" font-size="14.00" fill="#c6c5fe">weapon/tank/tankTurret.js</text>
</g>
<!-- enemy/tank.js&#45;&gt;weapon/tank/tankTurret.js -->
<g id="edge9" class="edge">
<title>enemy/tank.js&#45;&gt;weapon/tank/tankTurret.js</title>
<path fill="none" stroke="#757575" d="M503.27,-119.43C511.33,-119.43 519.9,-119.43 528.61,-119.43"/>
<polygon fill="#757575" stroke="#757575" points="528.88,-122.93 538.88,-119.43 528.88,-115.93 528.88,-122.93"/>
</g>
<!-- weapon/tank/tankTurret.js&#45;&gt;canvas.js -->
<g id="edge34" class="edge">
<title>weapon/tank/tankTurret.js&#45;&gt;canvas.js</title>
<path fill="none" stroke="#757575" d="M711.26,-116.65C776.01,-116.48 866.78,-120.45 944,-139.43 962.52,-143.99 982.06,-152.49 997.53,-160.2"/>
<polygon fill="#757575" stroke="#757575" points="996.09,-163.4 1006.59,-164.86 999.29,-157.17 996.09,-163.4"/>
</g>
<!-- weapon/tank/tankTurret.js&#45;&gt;gameState.js -->
<g id="edge35" class="edge">
<title>weapon/tank/tankTurret.js&#45;&gt;gameState.js</title>
<path fill="none" stroke="#757575" d="M642.63,-131.1C661.31,-144.91 691.57,-169.45 711,-196.43 734.26,-228.73 717.98,-251.19 747,-278.43 814.97,-342.23 858.84,-312.51 944,-350.43 962.43,-358.64 982.43,-369.19 998.18,-377.91"/>
<polygon fill="#757575" stroke="#757575" points="996.48,-380.97 1006.92,-382.79 999.9,-374.86 996.48,-380.97"/>
</g>
<!-- weapon/tank/tankTurret.js&#45;&gt;image.js -->
<g id="edge36" class="edge">
<title>weapon/tank/tankTurret.js&#45;&gt;image.js</title>
<path fill="none" stroke="#757575" d="M673.57,-107.93C752.24,-88.9 908.22,-51.17 983.86,-32.87"/>
<polygon fill="#757575" stroke="#757575" points="985.09,-36.17 993.98,-30.42 983.44,-29.37 985.09,-36.17"/>
</g>
<!-- weapon/tank/shellExplosion.js -->
<g id="node13" class="node">
<title>weapon/tank/shellExplosion.js</title>
<path fill="none" stroke="#c6c5fe" d="M936.33,-187.93C936.33,-187.93 754.67,-187.93 754.67,-187.93 750.83,-187.93 747,-184.1 747,-180.27 747,-180.27 747,-172.6 747,-172.6 747,-168.77 750.83,-164.93 754.67,-164.93 754.67,-164.93 936.33,-164.93 936.33,-164.93 940.17,-164.93 944,-168.77 944,-172.6 944,-172.6 944,-180.27 944,-180.27 944,-184.1 940.17,-187.93 936.33,-187.93"/>
<text text-anchor="middle" x="845.5" y="-172.73" font-family="Arial" font-size="14.00" fill="#c6c5fe">weapon/tank/shellExplosion.js</text>
</g>
<!-- weapon/tank/tankTurret.js&#45;&gt;weapon/tank/shellExplosion.js -->
<g id="edge37" class="edge">
<title>weapon/tank/tankTurret.js&#45;&gt;weapon/tank/shellExplosion.js</title>
<path fill="none" stroke="#757575" d="M670.22,-130.97C704.87,-140.01 753.24,-152.63 790.24,-162.28"/>
<polygon fill="#757575" stroke="#757575" points="789.79,-165.78 800.35,-164.92 791.56,-159.01 789.79,-165.78"/>
</g>
<!-- gameLoop.js&#45;&gt;canvas.js -->
<g id="edge10" class="edge">
<title>gameLoop.js&#45;&gt;canvas.js</title>
<path fill="none" stroke="#757575" d="M661.25,-422.84C723.06,-401.33 853.04,-350.78 944,-278.43 973.55,-254.93 999.56,-219.23 1014.27,-196.9"/>
<polygon fill="#757575" stroke="#757575" points="1017.39,-198.52 1019.86,-188.22 1011.5,-194.73 1017.39,-198.52"/>
</g>
<!-- gameLoop.js&#45;&gt;collisions.js -->
<g id="edge11" class="edge">
<title>gameLoop.js&#45;&gt;collisions.js</title>
<path fill="none" stroke="#757575" d="M666.57,-445.98C690.05,-452.62 720.17,-461.09 747,-468.43 761.83,-472.49 777.94,-476.83 792.73,-480.77"/>
<polygon fill="#757575" stroke="#757575" points="792.15,-484.23 802.71,-483.42 793.95,-477.47 792.15,-484.23"/>
</g>
<!-- gameLoop.js&#45;&gt;gameState.js -->
<g id="edge12" class="edge">
<title>gameLoop.js&#45;&gt;gameState.js</title>
<path fill="none" stroke="#757575" d="M672.57,-441.2C735.21,-448.82 849.65,-457.47 944,-435.43 964.15,-430.73 985.02,-420.39 1000.8,-411.27"/>
<polygon fill="#757575" stroke="#757575" points="1002.66,-414.23 1009.45,-406.09 999.07,-408.22 1002.66,-414.23"/>
</g>
<!-- playerStats.js -->
<g id="node12" class="node">
<title>playerStats.js</title>
<path fill="none" stroke="#c6c5fe" d="M886.83,-425.93C886.83,-425.93 804.17,-425.93 804.17,-425.93 800.33,-425.93 796.5,-422.1 796.5,-418.27 796.5,-418.27 796.5,-410.6 796.5,-410.6 796.5,-406.77 800.33,-402.93 804.17,-402.93 804.17,-402.93 886.83,-402.93 886.83,-402.93 890.67,-402.93 894.5,-406.77 894.5,-410.6 894.5,-410.6 894.5,-418.27 894.5,-418.27 894.5,-422.1 890.67,-425.93 886.83,-425.93"/>
<text text-anchor="middle" x="845.5" y="-410.73" font-family="Arial" font-size="14.00" fill="#c6c5fe">playerStats.js</text>
</g>
<!-- gameLoop.js&#45;&gt;playerStats.js -->
<g id="edge13" class="edge">
<title>gameLoop.js&#45;&gt;playerStats.js</title>
<path fill="none" stroke="#757575" d="M672.61,-430.17C705.8,-427.13 750.65,-423.02 786.21,-419.77"/>
<polygon fill="#757575" stroke="#757575" points="786.82,-423.23 796.45,-418.83 786.18,-416.26 786.82,-423.23"/>
</g>
<!-- gameLoop.js&#45;&gt;weapon/tank/shellExplosion.js -->
<g id="edge14" class="edge">
<title>gameLoop.js&#45;&gt;weapon/tank/shellExplosion.js</title>
<path fill="none" stroke="#757575" d="M630.32,-422.89C646.78,-379.5 706.64,-227.21 747,-196.43 748.6,-195.22 750.25,-194.07 751.95,-192.99"/>
<polygon fill="#757575" stroke="#757575" points="753.75,-195.99 760.81,-188.1 750.37,-189.86 753.75,-195.99"/>
</g>
<!-- playerStats.js&#45;&gt;canvas.js -->
<g id="edge24" class="edge">
<title>playerStats.js&#45;&gt;canvas.js</title>
<path fill="none" stroke="#757575" d="M859.42,-402.65C879.01,-384.42 916.83,-347.78 944,-312.43 973.43,-274.15 1001.32,-224.84 1016.08,-197.34"/>
<polygon fill="#757575" stroke="#757575" points="1019.3,-198.73 1020.9,-188.26 1013.12,-195.45 1019.3,-198.73"/>
</g>
<!-- playerStats.js&#45;&gt;gameState.js -->
<g id="edge25" class="edge">
<title>playerStats.js&#45;&gt;gameState.js</title>
<path fill="none" stroke="#757575" d="M894.87,-409.07C917.9,-406.52 945.6,-403.45 969.67,-400.79"/>
<polygon fill="#757575" stroke="#757575" points="970.19,-404.25 979.75,-399.67 969.42,-397.29 970.19,-404.25"/>
</g>
<!-- weapon/tank/shellExplosion.js&#45;&gt;canvas.js -->
<g id="edge31" class="edge">
<title>weapon/tank/shellExplosion.js&#45;&gt;canvas.js</title>
<path fill="none" stroke="#757575" d="M944.15,-176.43C956.99,-176.43 969.64,-176.43 981.03,-176.43"/>
<polygon fill="#757575" stroke="#757575" points="981.11,-179.93 991.11,-176.43 981.11,-172.93 981.11,-179.93"/>
</g>
<!-- weapon/tank/shellExplosion.js&#45;&gt;gameState.js -->
<g id="edge32" class="edge">
<title>weapon/tank/shellExplosion.js&#45;&gt;gameState.js</title>
<path fill="none" stroke="#757575" d="M930.93,-187.98C935.59,-190.35 940,-193.14 944,-196.43 999.65,-242.18 1018.58,-331.72 1024.52,-372.84"/>
<polygon fill="#757575" stroke="#757575" points="1021.06,-373.41 1025.84,-382.86 1028,-372.49 1021.06,-373.41"/>
</g>
<!-- weapon/tank/shellExplosion.js&#45;&gt;image.js -->
<g id="edge33" class="edge">
<title>weapon/tank/shellExplosion.js&#45;&gt;image.js</title>
<path fill="none" stroke="#757575" d="M867.31,-164.8C887.78,-152.9 919.45,-133.26 944,-112.43 969.84,-90.52 995.68,-61 1011.51,-41.84"/>
<polygon fill="#757575" stroke="#757575" points="1014.23,-44.04 1017.84,-34.08 1008.81,-39.62 1014.23,-44.04"/>
</g>
<!-- keyboard.js&#45;&gt;gameState.js -->
<g id="edge21" class="edge">
<title>keyboard.js&#45;&gt;gameState.js</title>
<path fill="none" stroke="#757575" d="M495.72,-573.72C600.64,-581.09 870.09,-594.84 944,-548.43 991.81,-518.41 1013.95,-450.8 1022.49,-416.01"/>
<polygon fill="#757575" stroke="#757575" points="1025.97,-416.49 1024.8,-405.96 1019.15,-414.92 1025.97,-416.49"/>
</g>
<!-- player.js&#45;&gt;canvas.js -->
<g id="edge22" class="edge">
<title>player.js&#45;&gt;canvas.js</title>
<path fill="none" stroke="#757575" d="M878.74,-254.96C898.27,-252.03 923.32,-246.75 944,-237.43 967.75,-226.75 991.33,-208.48 1007.26,-194.72"/>
<polygon fill="#757575" stroke="#757575" points="1009.68,-197.24 1014.85,-187.99 1005.04,-192 1009.68,-197.24"/>
</g>
<!-- player.js&#45;&gt;gameState.js -->
<g id="edge23" class="edge">
<title>player.js&#45;&gt;gameState.js</title>
<path fill="none" stroke="#757575" d="M865.7,-269.98C885.75,-282.27 917.84,-302.64 944,-322.43 966.62,-339.55 990.96,-361.07 1007.39,-376.1"/>
<polygon fill="#757575" stroke="#757575" points="1005.06,-378.71 1014.78,-382.92 1009.8,-373.56 1005.06,-378.71"/>
</g>
<!-- spawnEnemies.js&#45;&gt;enemy/enemy.js -->
<g id="edge26" class="edge">
<title>spawnEnemies.js&#45;&gt;enemy/enemy.js</title>
<path fill="none" stroke="#757575" d="M359.23,-274.89C414.8,-262.83 501.93,-243.92 560.92,-231.12"/>
<polygon fill="#757575" stroke="#757575" points="561.84,-234.5 570.87,-228.96 560.35,-227.66 561.84,-234.5"/>
</g>
<!-- spawnEnemies.js&#45;&gt;gameState.js -->
<g id="edge28" class="edge">
<title>spawnEnemies.js&#45;&gt;gameState.js</title>
<path fill="none" stroke="#757575" d="M318.61,-298.09C351.99,-328.36 446.49,-410.27 539,-455.43 625.46,-497.65 651.73,-501.97 747,-515.43 833.69,-527.69 866.53,-556.24 944,-515.43 983.95,-494.39 1008.36,-444.49 1019.61,-415.77"/>
<polygon fill="#757575" stroke="#757575" points="1022.95,-416.84 1023.16,-406.25 1016.39,-414.39 1022.95,-416.84"/>
</g>
<!-- spawnEnemies.js&#45;&gt;enemy/tank.js -->
<g id="edge27" class="edge">
<title>spawnEnemies.js&#45;&gt;enemy/tank.js</title>
<path fill="none" stroke="#757575" d="M316.23,-274.69C341.02,-246.24 404.5,-173.38 434.85,-138.55"/>
<polygon fill="#757575" stroke="#757575" points="437.54,-140.78 441.47,-130.94 432.27,-136.18 437.54,-140.78"/>
</g>
</g>
</svg>
