<?xml version="1.0" encoding="UTF-8" standalone="no"?>
<!DOCTYPE svg PUBLIC "-//W3C//DTD SVG 1.1//EN"
 "http://www.w3.org/Graphics/SVG/1.1/DTD/svg11.dtd">
<!-- Generated by graphviz version 2.43.0 (0)
 -->
<!-- Title: G Pages: 1 -->
<svg width="851pt" height="453pt"
 viewBox="0.00 0.00 851.20 452.63" xmlns="http://www.w3.org/2000/svg" xmlns:xlink="http://www.w3.org/1999/xlink">
<g id="graph0" class="graph" transform="scale(1 1) rotate(0) translate(21.6 431.03)">
<title>G</title>
<polygon fill="#111111" stroke="transparent" points="-21.6,21.6 -21.6,-431.03 829.6,-431.03 829.6,21.6 -21.6,21.6"/>
<!-- app.js -->
<g id="node1" class="node">
<title>app.js</title>
<path fill="none" stroke="#c6c5fe" d="M46.33,-180.44C46.33,-180.44 7.67,-180.44 7.67,-180.44 3.83,-180.44 0,-176.61 0,-172.77 0,-172.77 0,-165.11 0,-165.11 0,-161.27 3.83,-157.44 7.67,-157.44 7.67,-157.44 46.33,-157.44 46.33,-157.44 50.17,-157.44 54,-161.27 54,-165.11 54,-165.11 54,-172.77 54,-172.77 54,-176.61 50.17,-180.44 46.33,-180.44"/>
<text text-anchor="middle" x="27" y="-165.24" font-family="Arial" font-size="14.00" fill="#c6c5fe">app.js</text>
</g>
<!-- gameManager.js -->
<g id="node2" class="node">
<title>gameManager.js</title>
<path fill="none" stroke="#c6c5fe" d="M200.33,-180.44C200.33,-180.44 97.67,-180.44 97.67,-180.44 93.83,-180.44 90,-176.61 90,-172.77 90,-172.77 90,-165.11 90,-165.11 90,-161.27 93.83,-157.44 97.67,-157.44 97.67,-157.44 200.33,-157.44 200.33,-157.44 204.17,-157.44 208,-161.27 208,-165.11 208,-165.11 208,-172.77 208,-172.77 208,-176.61 204.17,-180.44 200.33,-180.44"/>
<text text-anchor="middle" x="149" y="-165.24" font-family="Arial" font-size="14.00" fill="#c6c5fe">gameManager.js</text>
</g>
<!-- app.js&#45;&gt;gameManager.js -->
<g id="edge1" class="edge">
<title>app.js&#45;&gt;gameManager.js</title>
<path fill="none" stroke="#757575" d="M54.04,-168.94C61.83,-168.94 70.77,-168.94 79.96,-168.94"/>
<polygon fill="#757575" stroke="#757575" points="80,-172.44 90,-168.94 80,-165.44 80,-172.44"/>
</g>
<!-- canvas.js -->
<g id="node3" class="node">
<title>canvas.js</title>
<path fill="none" stroke="#cfffac" d="M788.83,-279.44C788.83,-279.44 731.17,-279.44 731.17,-279.44 727.33,-279.44 723.5,-275.61 723.5,-271.77 723.5,-271.77 723.5,-264.11 723.5,-264.11 723.5,-260.27 727.33,-256.44 731.17,-256.44 731.17,-256.44 788.83,-256.44 788.83,-256.44 792.67,-256.44 796.5,-260.27 796.5,-264.11 796.5,-264.11 796.5,-271.77 796.5,-271.77 796.5,-275.61 792.67,-279.44 788.83,-279.44"/>
<text text-anchor="middle" x="760" y="-264.24" font-family="Arial" font-size="14.00" fill="#cfffac">canvas.js</text>
</g>
<!-- gameManager.js&#45;&gt;canvas.js -->
<g id="edge10" class="edge">
<title>gameManager.js&#45;&gt;canvas.js</title>
<path fill="none" stroke="#757575" d="M160.68,-180.55C177.26,-198.09 210.73,-231.65 244,-253.94 362.25,-333.17 394.18,-360.5 533,-391.94 594.99,-405.98 619.94,-421.88 676,-391.94 716.7,-370.2 740.95,-318.68 751.93,-289.35"/>
<polygon fill="#757575" stroke="#757575" points="755.33,-290.24 755.38,-279.64 748.73,-287.89 755.33,-290.24"/>
</g>
<!-- gameState.js -->
<g id="node6" class="node">
<title>gameState.js</title>
<path fill="none" stroke="#cfffac" d="M800.33,-119.44C800.33,-119.44 719.67,-119.44 719.67,-119.44 715.83,-119.44 712,-115.61 712,-111.77 712,-111.77 712,-104.11 712,-104.11 712,-100.27 715.83,-96.44 719.67,-96.44 719.67,-96.44 800.33,-96.44 800.33,-96.44 804.17,-96.44 808,-100.27 808,-104.11 808,-104.11 808,-111.77 808,-111.77 808,-115.61 804.17,-119.44 800.33,-119.44"/>
<text text-anchor="middle" x="760" y="-104.24" font-family="Arial" font-size="14.00" fill="#cfffac">gameState.js</text>
</g>
<!-- gameManager.js&#45;&gt;gameState.js -->
<g id="edge12" class="edge">
<title>gameManager.js&#45;&gt;gameState.js</title>
<path fill="none" stroke="#757575" d="M153.7,-157.1C163.27,-128.83 191.77,-57.67 244,-29.94 297.84,-1.36 516.59,22.65 676,-37.94 703.26,-48.3 727.88,-71.7 743.1,-88.6"/>
<polygon fill="#757575" stroke="#757575" points="740.58,-91.03 749.78,-96.28 745.86,-86.44 740.58,-91.03"/>
</g>
<!-- gameLoop.js -->
<g id="node9" class="node">
<title>gameLoop.js</title>
<path fill="none" stroke="#c6c5fe" d="M489.33,-319.44C489.33,-319.44 409.67,-319.44 409.67,-319.44 405.83,-319.44 402,-315.61 402,-311.77 402,-311.77 402,-304.11 402,-304.11 402,-300.27 405.83,-296.44 409.67,-296.44 409.67,-296.44 489.33,-296.44 489.33,-296.44 493.17,-296.44 497,-300.27 497,-304.11 497,-304.11 497,-311.77 497,-311.77 497,-315.61 493.17,-319.44 489.33,-319.44"/>
<text text-anchor="middle" x="449.5" y="-304.24" font-family="Arial" font-size="14.00" fill="#c6c5fe">gameLoop.js</text>
</g>
<!-- gameManager.js&#45;&gt;gameLoop.js -->
<g id="edge11" class="edge">
<title>gameManager.js&#45;&gt;gameLoop.js</title>
<path fill="none" stroke="#757575" d="M174.94,-180.55C228.27,-205.39 353.5,-263.7 414.25,-291.99"/>
<polygon fill="#757575" stroke="#757575" points="412.88,-295.22 423.42,-296.26 415.84,-288.87 412.88,-295.22"/>
</g>
<!-- keyboard.js -->
<g id="node11" class="node">
<title>keyboard.js</title>
<path fill="none" stroke="#c6c5fe" d="M340.33,-62.44C340.33,-62.44 269.67,-62.44 269.67,-62.44 265.83,-62.44 262,-58.61 262,-54.77 262,-54.77 262,-47.11 262,-47.11 262,-43.27 265.83,-39.44 269.67,-39.44 269.67,-39.44 340.33,-39.44 340.33,-39.44 344.17,-39.44 348,-43.27 348,-47.11 348,-47.11 348,-54.77 348,-54.77 348,-58.61 344.17,-62.44 340.33,-62.44"/>
<text text-anchor="middle" x="305" y="-47.24" font-family="Arial" font-size="14.00" fill="#c6c5fe">keyboard.js</text>
</g>
<!-- gameManager.js&#45;&gt;keyboard.js -->
<g id="edge13" class="edge">
<title>gameManager.js&#45;&gt;keyboard.js</title>
<path fill="none" stroke="#757575" d="M165.05,-157.41C192,-136.76 248.7,-93.31 280.71,-68.78"/>
<polygon fill="#757575" stroke="#757575" points="282.86,-71.55 288.66,-62.69 278.6,-66 282.86,-71.55"/>
</g>
<!-- player.js -->
<g id="node12" class="node">
<title>player.js</title>
<path fill="none" stroke="#c6c5fe" d="M629.83,-201.44C629.83,-201.44 579.17,-201.44 579.17,-201.44 575.33,-201.44 571.5,-197.61 571.5,-193.77 571.5,-193.77 571.5,-186.11 571.5,-186.11 571.5,-182.27 575.33,-178.44 579.17,-178.44 579.17,-178.44 629.83,-178.44 629.83,-178.44 633.67,-178.44 637.5,-182.27 637.5,-186.11 637.5,-186.11 637.5,-193.77 637.5,-193.77 637.5,-197.61 633.67,-201.44 629.83,-201.44"/>
<text text-anchor="middle" x="604.5" y="-186.24" font-family="Arial" font-size="14.00" fill="#c6c5fe">player.js</text>
</g>
<!-- gameManager.js&#45;&gt;player.js -->
<g id="edge14" class="edge">
<title>gameManager.js&#45;&gt;player.js</title>
<path fill="none" stroke="#757575" d="M208.36,-171.64C300.97,-175.93 479.43,-184.2 560.97,-187.97"/>
<polygon fill="#757575" stroke="#757575" points="561.2,-191.49 571.35,-188.45 561.53,-184.49 561.2,-191.49"/>
</g>
<!-- spawnEnemies.js -->
<g id="node13" class="node">
<title>spawnEnemies.js</title>
<path fill="none" stroke="#c6c5fe" d="M358.33,-139.44C358.33,-139.44 251.67,-139.44 251.67,-139.44 247.83,-139.44 244,-135.61 244,-131.77 244,-131.77 244,-124.11 244,-124.11 244,-120.27 247.83,-116.44 251.67,-116.44 251.67,-116.44 358.33,-116.44 358.33,-116.44 362.17,-116.44 366,-120.27 366,-124.11 366,-124.11 366,-131.77 366,-131.77 366,-135.61 362.17,-139.44 358.33,-139.44"/>
<text text-anchor="middle" x="305" y="-124.24" font-family="Arial" font-size="14.00" fill="#c6c5fe">spawnEnemies.js</text>
</g>
<!-- gameManager.js&#45;&gt;spawnEnemies.js -->
<g id="edge15" class="edge">
<title>gameManager.js&#45;&gt;spawnEnemies.js</title>
<path fill="none" stroke="#757575" d="M193.31,-157.41C211.18,-152.65 232.07,-147.09 250.86,-142.09"/>
<polygon fill="#757575" stroke="#757575" points="251.99,-145.41 260.75,-139.45 250.19,-138.65 251.99,-145.41"/>
</g>
<!-- collisions.js -->
<g id="node4" class="node">
<title>collisions.js</title>
<path fill="none" stroke="#cfffac" d="M639.33,-360.44C639.33,-360.44 569.67,-360.44 569.67,-360.44 565.83,-360.44 562,-356.61 562,-352.77 562,-352.77 562,-345.11 562,-345.11 562,-341.27 565.83,-337.44 569.67,-337.44 569.67,-337.44 639.33,-337.44 639.33,-337.44 643.17,-337.44 647,-341.27 647,-345.11 647,-345.11 647,-352.77 647,-352.77 647,-356.61 643.17,-360.44 639.33,-360.44"/>
<text text-anchor="middle" x="604.5" y="-345.24" font-family="Arial" font-size="14.00" fill="#cfffac">collisions.js</text>
</g>
<!-- enemy.js -->
<g id="node5" class="node">
<title>enemy.js</title>
<path fill="none" stroke="#c6c5fe" d="M477.33,-139.44C477.33,-139.44 421.67,-139.44 421.67,-139.44 417.83,-139.44 414,-135.61 414,-131.77 414,-131.77 414,-124.11 414,-124.11 414,-120.27 417.83,-116.44 421.67,-116.44 421.67,-116.44 477.33,-116.44 477.33,-116.44 481.17,-116.44 485,-120.27 485,-124.11 485,-124.11 485,-131.77 485,-131.77 485,-135.61 481.17,-139.44 477.33,-139.44"/>
<text text-anchor="middle" x="449.5" y="-124.24" font-family="Arial" font-size="14.00" fill="#c6c5fe">enemy.js</text>
</g>
<!-- enemy.js&#45;&gt;canvas.js -->
<g id="edge2" class="edge">
<title>enemy.js&#45;&gt;canvas.js</title>
<path fill="none" stroke="#757575" d="M458.7,-139.55C472.11,-157.66 500.52,-192.44 533,-210.94 590,-243.4 665.43,-257.61 713.1,-263.66"/>
<polygon fill="#757575" stroke="#757575" points="712.78,-267.15 723.12,-264.87 713.61,-260.2 712.78,-267.15"/>
</g>
<!-- enemy.js&#45;&gt;gameState.js -->
<g id="edge3" class="edge">
<title>enemy.js&#45;&gt;gameState.js</title>
<path fill="none" stroke="#757575" d="M468.29,-116.37C484.43,-106.61 509.26,-93.39 533,-87.94 594.94,-73.72 612.89,-80.44 676,-87.94 686.93,-89.24 698.5,-91.47 709.43,-93.98"/>
<polygon fill="#757575" stroke="#757575" points="708.7,-97.4 719.24,-96.34 710.34,-90.6 708.7,-97.4"/>
</g>
<!-- weapon/rifle.js -->
<g id="node7" class="node">
<title>weapon/rifle.js</title>
<path fill="none" stroke="#c6c5fe" d="M648.33,-119.44C648.33,-119.44 560.67,-119.44 560.67,-119.44 556.83,-119.44 553,-115.61 553,-111.77 553,-111.77 553,-104.11 553,-104.11 553,-100.27 556.83,-96.44 560.67,-96.44 560.67,-96.44 648.33,-96.44 648.33,-96.44 652.17,-96.44 656,-100.27 656,-104.11 656,-104.11 656,-111.77 656,-111.77 656,-115.61 652.17,-119.44 648.33,-119.44"/>
<text text-anchor="middle" x="604.5" y="-104.24" font-family="Arial" font-size="14.00" fill="#c6c5fe">weapon/rifle.js</text>
</g>
<!-- enemy.js&#45;&gt;weapon/rifle.js -->
<g id="edge4" class="edge">
<title>enemy.js&#45;&gt;weapon/rifle.js</title>
<path fill="none" stroke="#757575" d="M485.22,-123.4C502.26,-121.17 523.3,-118.42 542.88,-115.87"/>
<polygon fill="#757575" stroke="#757575" points="543.49,-119.31 552.96,-114.55 542.59,-112.37 543.49,-119.31"/>
</g>
<!-- weapon/tankTurret.js -->
<g id="node8" class="node">
<title>weapon/tankTurret.js</title>
<path fill="none" stroke="#c6c5fe" d="M668.33,-160.44C668.33,-160.44 540.67,-160.44 540.67,-160.44 536.83,-160.44 533,-156.61 533,-152.77 533,-152.77 533,-145.11 533,-145.11 533,-141.27 536.83,-137.44 540.67,-137.44 540.67,-137.44 668.33,-137.44 668.33,-137.44 672.17,-137.44 676,-141.27 676,-145.11 676,-145.11 676,-152.77 676,-152.77 676,-156.61 672.17,-160.44 668.33,-160.44"/>
<text text-anchor="middle" x="604.5" y="-145.24" font-family="Arial" font-size="14.00" fill="#c6c5fe">weapon/tankTurret.js</text>
</g>
<!-- enemy.js&#45;&gt;weapon/tankTurret.js -->
<g id="edge5" class="edge">
<title>enemy.js&#45;&gt;weapon/tankTurret.js</title>
<path fill="none" stroke="#757575" d="M485.22,-132.71C496.53,-134.26 509.6,-136.05 522.84,-137.87"/>
<polygon fill="#757575" stroke="#757575" points="522.58,-141.37 532.96,-139.26 523.53,-134.43 522.58,-141.37"/>
</g>
<!-- weapon/rifle.js&#45;&gt;canvas.js -->
<g id="edge23" class="edge">
<title>weapon/rifle.js&#45;&gt;canvas.js</title>
<path fill="none" stroke="#757575" d="M656.29,-118.03C663.34,-120.83 670.15,-124.39 676,-128.94 715.89,-159.96 740.69,-215.98 751.92,-246.57"/>
<polygon fill="#757575" stroke="#757575" points="748.71,-247.98 755.33,-256.25 755.31,-245.66 748.71,-247.98"/>
</g>
<!-- weapon/rifle.js&#45;&gt;gameState.js -->
<g id="edge24" class="edge">
<title>weapon/rifle.js&#45;&gt;gameState.js</title>
<path fill="none" stroke="#757575" d="M656.19,-107.94C670.73,-107.94 686.69,-107.94 701.61,-107.94"/>
<polygon fill="#757575" stroke="#757575" points="701.74,-111.44 711.74,-107.94 701.74,-104.44 701.74,-111.44"/>
</g>
<!-- weapon/tankTurret.js&#45;&gt;canvas.js -->
<g id="edge25" class="edge">
<title>weapon/tankTurret.js&#45;&gt;canvas.js</title>
<path fill="none" stroke="#757575" d="M657.13,-160.49C663.75,-163.05 670.23,-166.17 676,-169.94 707.03,-190.22 732.76,-225.49 746.99,-247.73"/>
<polygon fill="#757575" stroke="#757575" points="744.11,-249.73 752.37,-256.38 750.06,-246.04 744.11,-249.73"/>
</g>
<!-- weapon/tankTurret.js&#45;&gt;gameState.js -->
<g id="edge26" class="edge">
<title>weapon/tankTurret.js&#45;&gt;gameState.js</title>
<path fill="none" stroke="#757575" d="M648.67,-137.41C666.48,-132.65 687.3,-127.09 706.03,-122.09"/>
<polygon fill="#757575" stroke="#757575" points="707.13,-125.42 715.89,-119.45 705.33,-118.65 707.13,-125.42"/>
</g>
<!-- gameLoop.js&#45;&gt;canvas.js -->
<g id="edge6" class="edge">
<title>gameLoop.js&#45;&gt;canvas.js</title>
<path fill="none" stroke="#757575" d="M461.12,-319.65C475.63,-334.68 503.26,-360.01 533,-369.94 593.28,-390.07 618.6,-397.23 676,-369.94 711.16,-353.22 736.3,-313.53 749.17,-288.88"/>
<polygon fill="#757575" stroke="#757575" points="752.45,-290.15 753.79,-279.64 746.19,-287.02 752.45,-290.15"/>
</g>
<!-- gameLoop.js&#45;&gt;collisions.js -->
<g id="edge7" class="edge">
<title>gameLoop.js&#45;&gt;collisions.js</title>
<path fill="none" stroke="#757575" d="M493.53,-319.47C511.74,-324.35 533.11,-330.08 552.14,-335.18"/>
<polygon fill="#757575" stroke="#757575" points="551.29,-338.57 561.85,-337.78 553.1,-331.81 551.29,-338.57"/>
</g>
<!-- gameLoop.js&#45;&gt;gameState.js -->
<g id="edge8" class="edge">
<title>gameLoop.js&#45;&gt;gameState.js</title>
<path fill="none" stroke="#757575" d="M493.19,-296.4C541.09,-281.97 619.48,-253.85 676,-210.94 706.54,-187.75 732.56,-150.99 746.95,-128.23"/>
<polygon fill="#757575" stroke="#757575" points="749.95,-130.04 752.22,-119.69 743.99,-126.36 749.95,-130.04"/>
</g>
<!-- playerStats.js -->
<g id="node10" class="node">
<title>playerStats.js</title>
<path fill="none" stroke="#c6c5fe" d="M645.83,-319.44C645.83,-319.44 563.17,-319.44 563.17,-319.44 559.33,-319.44 555.5,-315.61 555.5,-311.77 555.5,-311.77 555.5,-304.11 555.5,-304.11 555.5,-300.27 559.33,-296.44 563.17,-296.44 563.17,-296.44 645.83,-296.44 645.83,-296.44 649.67,-296.44 653.5,-300.27 653.5,-304.11 653.5,-304.11 653.5,-311.77 653.5,-311.77 653.5,-315.61 649.67,-319.44 645.83,-319.44"/>
<text text-anchor="middle" x="604.5" y="-304.24" font-family="Arial" font-size="14.00" fill="#c6c5fe">playerStats.js</text>
</g>
<!-- gameLoop.js&#45;&gt;playerStats.js -->
<g id="edge9" class="edge">
<title>gameLoop.js&#45;&gt;playerStats.js</title>
<path fill="none" stroke="#757575" d="M497.24,-307.94C512.38,-307.94 529.36,-307.94 545.23,-307.94"/>
<polygon fill="#757575" stroke="#757575" points="545.46,-311.44 555.46,-307.94 545.46,-304.44 545.46,-311.44"/>
</g>
<!-- playerStats.js&#45;&gt;canvas.js -->
<g id="edge19" class="edge">
<title>playerStats.js&#45;&gt;canvas.js</title>
<path fill="none" stroke="#757575" d="M649.9,-296.37C669.9,-291.16 693.48,-285.01 713.59,-279.77"/>
<polygon fill="#757575" stroke="#757575" points="714.66,-283.11 723.46,-277.2 712.9,-276.34 714.66,-283.11"/>
</g>
<!-- playerStats.js&#45;&gt;gameState.js -->
<g id="edge20" class="edge">
<title>playerStats.js&#45;&gt;gameState.js</title>
<path fill="none" stroke="#757575" d="M620.7,-296.29C635.82,-284.23 659.15,-264.33 676,-243.94 706.92,-206.54 734.45,-156.52 748.7,-128.75"/>
<polygon fill="#757575" stroke="#757575" points="751.95,-130.09 753.34,-119.59 745.7,-126.93 751.95,-130.09"/>
</g>
<!-- keyboard.js&#45;&gt;gameState.js -->
<g id="edge16" class="edge">
<title>keyboard.js&#45;&gt;gameState.js</title>
<path fill="none" stroke="#757575" d="M348.24,-46.37C417.9,-40.17 560.66,-33.1 676,-63.94 696.68,-69.47 717.97,-80.89 733.81,-90.72"/>
<polygon fill="#757575" stroke="#757575" points="732.15,-93.81 742.46,-96.26 735.93,-87.92 732.15,-93.81"/>
</g>
<!-- player.js&#45;&gt;canvas.js -->
<g id="edge17" class="edge">
<title>player.js&#45;&gt;canvas.js</title>
<path fill="none" stroke="#757575" d="M628.15,-201.45C654.34,-214.76 697.62,-236.75 727.18,-251.77"/>
<polygon fill="#757575" stroke="#757575" points="725.76,-254.97 736.26,-256.38 728.93,-248.73 725.76,-254.97"/>
</g>
<!-- player.js&#45;&gt;gameState.js -->
<g id="edge18" class="edge">
<title>player.js&#45;&gt;gameState.js</title>
<path fill="none" stroke="#757575" d="M637.65,-183.45C650.01,-180.29 664.02,-175.86 676,-169.94 699.34,-158.4 722.83,-140.09 738.83,-126.35"/>
<polygon fill="#757575" stroke="#757575" points="741.26,-128.87 746.47,-119.64 736.65,-123.61 741.26,-128.87"/>
</g>
<!-- spawnEnemies.js&#45;&gt;enemy.js -->
<g id="edge21" class="edge">
<title>spawnEnemies.js&#45;&gt;enemy.js</title>
<path fill="none" stroke="#757575" d="M366.02,-127.94C378.61,-127.94 391.68,-127.94 403.6,-127.94"/>
<polygon fill="#757575" stroke="#757575" points="403.74,-131.44 413.74,-127.94 403.74,-124.44 403.74,-131.44"/>
</g>
<!-- spawnEnemies.js&#45;&gt;gameState.js -->
<g id="edge22" class="edge">
<title>spawnEnemies.js&#45;&gt;gameState.js</title>
<path fill="none" stroke="#757575" d="M337.84,-116.29C402.09,-94.35 551.72,-51.14 676,-74.94 693.62,-78.31 712.26,-85.38 727.4,-92.1"/>
<polygon fill="#757575" stroke="#757575" points="726.25,-95.43 736.8,-96.44 729.18,-89.07 726.25,-95.43"/>
</g>
</g>
</svg>
