<?xml version="1.0" encoding="UTF-8" standalone="no"?>
<!DOCTYPE svg PUBLIC "-//W3C//DTD SVG 1.1//EN"
 "http://www.w3.org/Graphics/SVG/1.1/DTD/svg11.dtd">
<!-- Generated by graphviz version 2.43.0 (0)
 -->
<!-- Title: G Pages: 1 -->
<svg width="811pt" height="421pt"
 viewBox="0.00 0.00 811.20 420.82" xmlns="http://www.w3.org/2000/svg" xmlns:xlink="http://www.w3.org/1999/xlink">
<g id="graph0" class="graph" transform="scale(1 1) rotate(0) translate(21.6 399.22)">
<title>G</title>
<polygon fill="#111111" stroke="transparent" points="-21.6,21.6 -21.6,-399.22 789.6,-399.22 789.6,21.6 -21.6,21.6"/>
<!-- app.js -->
<g id="node1" class="node">
<title>app.js</title>
<path fill="none" stroke="#c6c5fe" d="M46.33,-157.51C46.33,-157.51 7.67,-157.51 7.67,-157.51 3.83,-157.51 0,-153.68 0,-149.84 0,-149.84 0,-142.18 0,-142.18 0,-138.34 3.83,-134.51 7.67,-134.51 7.67,-134.51 46.33,-134.51 46.33,-134.51 50.17,-134.51 54,-138.34 54,-142.18 54,-142.18 54,-149.84 54,-149.84 54,-153.68 50.17,-157.51 46.33,-157.51"/>
<text text-anchor="middle" x="27" y="-142.31" font-family="Arial" font-size="14.00" fill="#c6c5fe">app.js</text>
</g>
<!-- gameManager.js -->
<g id="node2" class="node">
<title>gameManager.js</title>
<path fill="none" stroke="#c6c5fe" d="M200.33,-157.51C200.33,-157.51 97.67,-157.51 97.67,-157.51 93.83,-157.51 90,-153.68 90,-149.84 90,-149.84 90,-142.18 90,-142.18 90,-138.34 93.83,-134.51 97.67,-134.51 97.67,-134.51 200.33,-134.51 200.33,-134.51 204.17,-134.51 208,-138.34 208,-142.18 208,-142.18 208,-149.84 208,-149.84 208,-153.68 204.17,-157.51 200.33,-157.51"/>
<text text-anchor="middle" x="149" y="-142.31" font-family="Arial" font-size="14.00" fill="#c6c5fe">gameManager.js</text>
</g>
<!-- app.js&#45;&gt;gameManager.js -->
<g id="edge1" class="edge">
<title>app.js&#45;&gt;gameManager.js</title>
<path fill="none" stroke="#757575" d="M54.04,-146.01C61.83,-146.01 70.77,-146.01 79.96,-146.01"/>
<polygon fill="#757575" stroke="#757575" points="80,-149.51 90,-146.01 80,-142.51 80,-149.51"/>
</g>
<!-- canvas.js -->
<g id="node3" class="node">
<title>canvas.js</title>
<path fill="none" stroke="#cfffac" d="M748.83,-276.51C748.83,-276.51 691.17,-276.51 691.17,-276.51 687.33,-276.51 683.5,-272.68 683.5,-268.84 683.5,-268.84 683.5,-261.18 683.5,-261.18 683.5,-257.34 687.33,-253.51 691.17,-253.51 691.17,-253.51 748.83,-253.51 748.83,-253.51 752.67,-253.51 756.5,-257.34 756.5,-261.18 756.5,-261.18 756.5,-268.84 756.5,-268.84 756.5,-272.68 752.67,-276.51 748.83,-276.51"/>
<text text-anchor="middle" x="720" y="-261.31" font-family="Arial" font-size="14.00" fill="#cfffac">canvas.js</text>
</g>
<!-- gameManager.js&#45;&gt;canvas.js -->
<g id="edge9" class="edge">
<title>gameManager.js&#45;&gt;canvas.js</title>
<path fill="none" stroke="#757575" d="M160.68,-157.63C177.24,-175.19 210.71,-208.76 244,-231.01 361.87,-309.79 394.49,-335.8 533,-366.01 577.73,-375.77 594.61,-385.57 636,-366.01 670.99,-349.48 696.19,-310.16 709.12,-285.75"/>
<polygon fill="#757575" stroke="#757575" points="712.36,-287.11 713.76,-276.6 706.11,-283.94 712.36,-287.11"/>
</g>
<!-- gameState.js -->
<g id="node6" class="node">
<title>gameState.js</title>
<path fill="none" stroke="#cfffac" d="M760.33,-117.51C760.33,-117.51 679.67,-117.51 679.67,-117.51 675.83,-117.51 672,-113.68 672,-109.84 672,-109.84 672,-102.18 672,-102.18 672,-98.34 675.83,-94.51 679.67,-94.51 679.67,-94.51 760.33,-94.51 760.33,-94.51 764.17,-94.51 768,-98.34 768,-102.18 768,-102.18 768,-109.84 768,-109.84 768,-113.68 764.17,-117.51 760.33,-117.51"/>
<text text-anchor="middle" x="720" y="-102.31" font-family="Arial" font-size="14.00" fill="#cfffac">gameState.js</text>
</g>
<!-- gameManager.js&#45;&gt;gameState.js -->
<g id="edge11" class="edge">
<title>gameManager.js&#45;&gt;gameState.js</title>
<path fill="none" stroke="#757575" d="M154.92,-134.43C166.29,-109.39 197.05,-50.64 244,-28.01 398.86,46.62 611.54,-49.05 689.13,-89.52"/>
<polygon fill="#757575" stroke="#757575" points="687.85,-92.8 698.33,-94.39 691.13,-86.62 687.85,-92.8"/>
</g>
<!-- gameLoop.js -->
<g id="node8" class="node">
<title>gameLoop.js</title>
<path fill="none" stroke="#c6c5fe" d="M489.33,-296.51C489.33,-296.51 409.67,-296.51 409.67,-296.51 405.83,-296.51 402,-292.68 402,-288.84 402,-288.84 402,-281.18 402,-281.18 402,-277.34 405.83,-273.51 409.67,-273.51 409.67,-273.51 489.33,-273.51 489.33,-273.51 493.17,-273.51 497,-277.34 497,-281.18 497,-281.18 497,-288.84 497,-288.84 497,-292.68 493.17,-296.51 489.33,-296.51"/>
<text text-anchor="middle" x="449.5" y="-281.31" font-family="Arial" font-size="14.00" fill="#c6c5fe">gameLoop.js</text>
</g>
<!-- gameManager.js&#45;&gt;gameLoop.js -->
<g id="edge10" class="edge">
<title>gameManager.js&#45;&gt;gameLoop.js</title>
<path fill="none" stroke="#757575" d="M174.94,-157.62C228.27,-182.46 353.5,-240.77 414.25,-269.06"/>
<polygon fill="#757575" stroke="#757575" points="412.88,-272.29 423.42,-273.33 415.84,-265.94 412.88,-272.29"/>
</g>
<!-- keyboard.js -->
<g id="node10" class="node">
<title>keyboard.js</title>
<path fill="none" stroke="#c6c5fe" d="M340.33,-60.51C340.33,-60.51 269.67,-60.51 269.67,-60.51 265.83,-60.51 262,-56.68 262,-52.84 262,-52.84 262,-45.18 262,-45.18 262,-41.34 265.83,-37.51 269.67,-37.51 269.67,-37.51 340.33,-37.51 340.33,-37.51 344.17,-37.51 348,-41.34 348,-45.18 348,-45.18 348,-52.84 348,-52.84 348,-56.68 344.17,-60.51 340.33,-60.51"/>
<text text-anchor="middle" x="305" y="-45.31" font-family="Arial" font-size="14.00" fill="#c6c5fe">keyboard.js</text>
</g>
<!-- gameManager.js&#45;&gt;keyboard.js -->
<g id="edge12" class="edge">
<title>gameManager.js&#45;&gt;keyboard.js</title>
<path fill="none" stroke="#757575" d="M168.27,-134.5C195.1,-117.6 245.36,-85.95 276.61,-66.26"/>
<polygon fill="#757575" stroke="#757575" points="278.68,-69.1 285.27,-60.81 274.95,-63.17 278.68,-69.1"/>
</g>
<!-- player.js -->
<g id="node11" class="node">
<title>player.js</title>
<path fill="none" stroke="#c6c5fe" d="M609.83,-178.51C609.83,-178.51 559.17,-178.51 559.17,-178.51 555.33,-178.51 551.5,-174.68 551.5,-170.84 551.5,-170.84 551.5,-163.18 551.5,-163.18 551.5,-159.34 555.33,-155.51 559.17,-155.51 559.17,-155.51 609.83,-155.51 609.83,-155.51 613.67,-155.51 617.5,-159.34 617.5,-163.18 617.5,-163.18 617.5,-170.84 617.5,-170.84 617.5,-174.68 613.67,-178.51 609.83,-178.51"/>
<text text-anchor="middle" x="584.5" y="-163.31" font-family="Arial" font-size="14.00" fill="#c6c5fe">player.js</text>
</g>
<!-- gameManager.js&#45;&gt;player.js -->
<g id="edge13" class="edge">
<title>gameManager.js&#45;&gt;player.js</title>
<path fill="none" stroke="#757575" d="M208.01,-148.82C296.37,-153.1 462.64,-161.16 540.82,-164.94"/>
<polygon fill="#757575" stroke="#757575" points="541.09,-168.46 551.25,-165.45 541.43,-161.47 541.09,-168.46"/>
</g>
<!-- spawnEnemies.js -->
<g id="node12" class="node">
<title>spawnEnemies.js</title>
<path fill="none" stroke="#c6c5fe" d="M358.33,-137.51C358.33,-137.51 251.67,-137.51 251.67,-137.51 247.83,-137.51 244,-133.68 244,-129.84 244,-129.84 244,-122.18 244,-122.18 244,-118.34 247.83,-114.51 251.67,-114.51 251.67,-114.51 358.33,-114.51 358.33,-114.51 362.17,-114.51 366,-118.34 366,-122.18 366,-122.18 366,-129.84 366,-129.84 366,-133.68 362.17,-137.51 358.33,-137.51"/>
<text text-anchor="middle" x="305" y="-122.31" font-family="Arial" font-size="14.00" fill="#c6c5fe">spawnEnemies.js</text>
</g>
<!-- gameManager.js&#45;&gt;spawnEnemies.js -->
<g id="edge14" class="edge">
<title>gameManager.js&#45;&gt;spawnEnemies.js</title>
<path fill="none" stroke="#757575" d="M208.22,-138.45C216.61,-137.36 225.31,-136.23 233.9,-135.12"/>
<polygon fill="#757575" stroke="#757575" points="234.44,-138.57 243.9,-133.82 233.54,-131.63 234.44,-138.57"/>
</g>
<!-- collisions.js -->
<g id="node4" class="node">
<title>collisions.js</title>
<path fill="none" stroke="#cfffac" d="M619.33,-337.51C619.33,-337.51 549.67,-337.51 549.67,-337.51 545.83,-337.51 542,-333.68 542,-329.84 542,-329.84 542,-322.18 542,-322.18 542,-318.34 545.83,-314.51 549.67,-314.51 549.67,-314.51 619.33,-314.51 619.33,-314.51 623.17,-314.51 627,-318.34 627,-322.18 627,-322.18 627,-329.84 627,-329.84 627,-333.68 623.17,-337.51 619.33,-337.51"/>
<text text-anchor="middle" x="584.5" y="-322.31" font-family="Arial" font-size="14.00" fill="#cfffac">collisions.js</text>
</g>
<!-- enemy.js -->
<g id="node5" class="node">
<title>enemy.js</title>
<path fill="none" stroke="#c6c5fe" d="M477.33,-137.51C477.33,-137.51 421.67,-137.51 421.67,-137.51 417.83,-137.51 414,-133.68 414,-129.84 414,-129.84 414,-122.18 414,-122.18 414,-118.34 417.83,-114.51 421.67,-114.51 421.67,-114.51 477.33,-114.51 477.33,-114.51 481.17,-114.51 485,-118.34 485,-122.18 485,-122.18 485,-129.84 485,-129.84 485,-133.68 481.17,-137.51 477.33,-137.51"/>
<text text-anchor="middle" x="449.5" y="-122.31" font-family="Arial" font-size="14.00" fill="#c6c5fe">enemy.js</text>
</g>
<!-- enemy.js&#45;&gt;canvas.js -->
<g id="edge2" class="edge">
<title>enemy.js&#45;&gt;canvas.js</title>
<path fill="none" stroke="#757575" d="M463.78,-137.67C479.5,-151.05 506.86,-173.09 533,-188.01 578.84,-214.16 635.32,-236.26 673.93,-249.98"/>
<polygon fill="#757575" stroke="#757575" points="673.24,-253.44 683.84,-253.45 675.56,-246.84 673.24,-253.44"/>
</g>
<!-- enemy.js&#45;&gt;gameState.js -->
<g id="edge3" class="edge">
<title>enemy.js&#45;&gt;gameState.js</title>
<path fill="none" stroke="#757575" d="M485.09,-115.69C499.73,-111.83 517.05,-107.92 533,-106.01 575.94,-100.88 624.85,-101.12 661.73,-102.51"/>
<polygon fill="#757575" stroke="#757575" points="661.67,-106.01 671.8,-102.93 661.96,-99.02 661.67,-106.01"/>
</g>
<!-- weapon/rifle.js -->
<g id="node7" class="node">
<title>weapon/rifle.js</title>
<path fill="none" stroke="#c6c5fe" d="M628.33,-137.51C628.33,-137.51 540.67,-137.51 540.67,-137.51 536.83,-137.51 533,-133.68 533,-129.84 533,-129.84 533,-122.18 533,-122.18 533,-118.34 536.83,-114.51 540.67,-114.51 540.67,-114.51 628.33,-114.51 628.33,-114.51 632.17,-114.51 636,-118.34 636,-122.18 636,-122.18 636,-129.84 636,-129.84 636,-133.68 632.17,-137.51 628.33,-137.51"/>
<text text-anchor="middle" x="584.5" y="-122.31" font-family="Arial" font-size="14.00" fill="#c6c5fe">weapon/rifle.js</text>
</g>
<!-- enemy.js&#45;&gt;weapon/rifle.js -->
<g id="edge4" class="edge">
<title>enemy.js&#45;&gt;weapon/rifle.js</title>
<path fill="none" stroke="#757575" d="M485.1,-126.01C496.58,-126.01 509.72,-126.01 522.58,-126.01"/>
<polygon fill="#757575" stroke="#757575" points="522.79,-129.51 532.79,-126.01 522.79,-122.51 522.79,-129.51"/>
</g>
<!-- weapon/rifle.js&#45;&gt;canvas.js -->
<g id="edge22" class="edge">
<title>weapon/rifle.js&#45;&gt;canvas.js</title>
<path fill="none" stroke="#757575" d="M620.64,-137.57C626.08,-140.2 631.41,-143.33 636,-147.01 669.79,-174.11 695.8,-218.43 709.12,-244.35"/>
<polygon fill="#757575" stroke="#757575" points="706,-245.93 713.6,-253.31 712.26,-242.8 706,-245.93"/>
</g>
<!-- weapon/rifle.js&#45;&gt;gameState.js -->
<g id="edge23" class="edge">
<title>weapon/rifle.js&#45;&gt;gameState.js</title>
<path fill="none" stroke="#757575" d="M636.35,-118.39C644.63,-117.15 653.25,-115.86 661.67,-114.6"/>
<polygon fill="#757575" stroke="#757575" points="662.43,-118.03 671.8,-113.08 661.39,-111.1 662.43,-118.03"/>
</g>
<!-- gameLoop.js&#45;&gt;canvas.js -->
<g id="edge5" class="edge">
<title>gameLoop.js&#45;&gt;canvas.js</title>
<path fill="none" stroke="#757575" d="M461.12,-296.72C475.63,-311.76 503.26,-337.08 533,-347.01 576.42,-361.51 593.65,-364.4 636,-347.01 666.39,-334.53 691.58,-304.96 705.97,-284.96"/>
<polygon fill="#757575" stroke="#757575" points="708.98,-286.75 711.8,-276.54 703.23,-282.76 708.98,-286.75"/>
</g>
<!-- gameLoop.js&#45;&gt;collisions.js -->
<g id="edge6" class="edge">
<title>gameLoop.js&#45;&gt;collisions.js</title>
<path fill="none" stroke="#757575" d="M487.9,-296.54C502.92,-301.17 520.4,-306.56 536.28,-311.45"/>
<polygon fill="#757575" stroke="#757575" points="535.33,-314.82 545.92,-314.43 537.39,-308.14 535.33,-314.82"/>
</g>
<!-- gameLoop.js&#45;&gt;gameState.js -->
<g id="edge7" class="edge">
<title>gameLoop.js&#45;&gt;gameState.js</title>
<path fill="none" stroke="#757575" d="M478.71,-273.42C516.42,-257.25 584.49,-225.62 636,-188.01 661.31,-169.54 686.34,-143.45 702.18,-125.69"/>
<polygon fill="#757575" stroke="#757575" points="705.22,-127.54 709.18,-117.72 699.96,-122.92 705.22,-127.54"/>
</g>
<!-- playerStats.js -->
<g id="node9" class="node">
<title>playerStats.js</title>
<path fill="none" stroke="#c6c5fe" d="M625.83,-296.51C625.83,-296.51 543.17,-296.51 543.17,-296.51 539.33,-296.51 535.5,-292.68 535.5,-288.84 535.5,-288.84 535.5,-281.18 535.5,-281.18 535.5,-277.34 539.33,-273.51 543.17,-273.51 543.17,-273.51 625.83,-273.51 625.83,-273.51 629.67,-273.51 633.5,-277.34 633.5,-281.18 633.5,-281.18 633.5,-288.84 633.5,-288.84 633.5,-292.68 629.67,-296.51 625.83,-296.51"/>
<text text-anchor="middle" x="584.5" y="-281.31" font-family="Arial" font-size="14.00" fill="#c6c5fe">playerStats.js</text>
</g>
<!-- gameLoop.js&#45;&gt;playerStats.js -->
<g id="edge8" class="edge">
<title>gameLoop.js&#45;&gt;playerStats.js</title>
<path fill="none" stroke="#757575" d="M497.02,-285.01C506.15,-285.01 515.83,-285.01 525.29,-285.01"/>
<polygon fill="#757575" stroke="#757575" points="525.43,-288.51 535.43,-285.01 525.43,-281.51 525.43,-288.51"/>
</g>
<!-- playerStats.js&#45;&gt;canvas.js -->
<g id="edge18" class="edge">
<title>playerStats.js&#45;&gt;canvas.js</title>
<path fill="none" stroke="#757575" d="M633.7,-277.79C646.66,-275.85 660.64,-273.75 673.46,-271.83"/>
<polygon fill="#757575" stroke="#757575" points="674.07,-275.28 683.44,-270.34 673.04,-268.36 674.07,-275.28"/>
</g>
<!-- playerStats.js&#45;&gt;gameState.js -->
<g id="edge19" class="edge">
<title>playerStats.js&#45;&gt;gameState.js</title>
<path fill="none" stroke="#757575" d="M594.96,-273.33C605.22,-260.59 622.02,-239.54 636,-221.01 660.88,-188.05 688.79,-148.91 705.08,-125.84"/>
<polygon fill="#757575" stroke="#757575" points="708.02,-127.75 710.91,-117.56 702.29,-123.71 708.02,-127.75"/>
</g>
<!-- keyboard.js&#45;&gt;gameState.js -->
<g id="edge15" class="edge">
<title>keyboard.js&#45;&gt;gameState.js</title>
<path fill="none" stroke="#757575" d="M348.09,-53C410.96,-59.22 533.04,-72.26 636,-89.01 644.35,-90.37 653.13,-91.98 661.74,-93.65"/>
<polygon fill="#757575" stroke="#757575" points="661.23,-97.12 671.72,-95.63 662.59,-90.25 661.23,-97.12"/>
</g>
<!-- player.js&#45;&gt;canvas.js -->
<g id="edge16" class="edge">
<title>player.js&#45;&gt;canvas.js</title>
<path fill="none" stroke="#757575" d="M601.34,-178.64C624.52,-195.66 667.88,-227.49 695,-247.39"/>
<polygon fill="#757575" stroke="#757575" points="693.05,-250.3 703.18,-253.4 697.19,-244.66 693.05,-250.3"/>
</g>
<!-- player.js&#45;&gt;gameState.js -->
<g id="edge17" class="edge">
<title>player.js&#45;&gt;gameState.js</title>
<path fill="none" stroke="#757575" d="M615.84,-155.46C622.53,-152.79 629.54,-149.88 636,-147.01 653.27,-139.34 672.19,-130.07 687.6,-122.28"/>
<polygon fill="#757575" stroke="#757575" points="689.37,-125.31 696.69,-117.65 686.19,-119.07 689.37,-125.31"/>
</g>
<!-- spawnEnemies.js&#45;&gt;enemy.js -->
<g id="edge20" class="edge">
<title>spawnEnemies.js&#45;&gt;enemy.js</title>
<path fill="none" stroke="#757575" d="M366.02,-126.01C378.61,-126.01 391.68,-126.01 403.6,-126.01"/>
<polygon fill="#757575" stroke="#757575" points="403.74,-129.51 413.74,-126.01 403.74,-122.51 403.74,-129.51"/>
</g>
<!-- spawnEnemies.js&#45;&gt;gameState.js -->
<g id="edge21" class="edge">
<title>spawnEnemies.js&#45;&gt;gameState.js</title>
<path fill="none" stroke="#757575" d="M355.11,-114.43C370.09,-111.27 386.65,-108.13 402,-106.01 505.1,-91.8 532.07,-91.39 636,-97.01 644.32,-97.46 653.09,-98.16 661.69,-98.98"/>
<polygon fill="#757575" stroke="#757575" points="661.37,-102.47 671.67,-99.99 662.07,-95.5 661.37,-102.47"/>
</g>
</g>
</svg>
